<svg class="_1htSHmlsXjx-NEno4IvY7s" alt="Bandsintown" xmlns="http://www.w3.org/2000/svg" width="201" height="30" viewBox="0 0 201 30"><g fill="gray" fill-rule="evenodd"><path d="M46.73 18.445c0-2.648-1.682-4.513-4.262-4.513-2.581 0-4.262 1.865-4.262 4.513 0 2.648 1.68 4.514 4.262 4.514 2.58 0 4.261-1.866 4.261-4.514zm-8.495 4.978h-.06v2.085h-2.952V4.045h2.952v9.382h.06c.874-1.533 2.41-2.545 4.7-2.545 3.674 0 6.777 2.82 6.777 7.543 0 4.722-3.103 7.543-6.778 7.543-2.289 0-3.825-1.012-4.699-2.545zm13.608-4.978c0-4.71 3.103-7.523 6.778-7.523 2.29 0 3.826 1.01 4.7 2.538h.06v-2.08h2.952v14.13H63.38v-2.08h-.06c-.874 1.529-2.41 2.538-4.7 2.538-3.675 0-6.778-2.813-6.778-7.523zm11.933 0c0-2.648-1.681-4.513-4.262-4.513-2.581 0-4.262 1.865-4.262 4.513 0 2.648 1.68 4.514 4.262 4.514 2.58 0 4.262-1.866 4.262-4.514zm19.177-1.61v8.703h-2.948v-8.181c0-2.42-1.203-3.432-3.189-3.432-2.165 0-3.7 1.318-3.7 4.841v6.772h-2.948V11.382h2.948v2.145h.06c.903-1.624 2.407-2.605 4.543-2.605 2.978 0 5.234 1.624 5.234 5.914zm2.983 1.59c0-4.722 3.103-7.543 6.778-7.543 2.29 0 3.826 1.012 4.7 2.545h.06V4.045h2.952v21.463h-2.952v-2.085h-.06c-.874 1.533-2.41 2.545-4.7 2.545-3.675 0-6.778-2.821-6.778-7.543zm11.933.02c0-2.648-1.681-4.513-4.262-4.513-2.581 0-4.262 1.865-4.262 4.513 0 2.648 1.68 4.514 4.262 4.514 2.58 0 4.262-1.866 4.262-4.514zm5.114 6.024l1.325-2.66c1.294.764 2.77 1.345 4.425 1.345 1.416 0 2.168-.428 2.168-1.314 0-.581-.3-1.01-1.475-1.59l-2.529-1.255c-2.108-1.009-2.92-2.446-2.92-4.066 0-2.6 1.896-4.007 4.937-4.007 1.596 0 3.342.428 4.818 1.102l-1.205 2.599c-1.054-.46-2.348-.918-3.703-.918-1.295 0-1.716.429-1.716 1.07 0 .673.391 1.102 1.595 1.682l2.59 1.254c1.806.856 2.77 2.08 2.77 3.976 0 2.874-2.168 4.28-5.42 4.28-1.987 0-4.064-.55-5.66-1.498zm14.063 1.069V11.352h2.983v14.186h-2.983zm19.603-8.702v8.702h-2.948v-8.181c0-2.42-1.203-3.432-3.188-3.432-2.166 0-3.7 1.318-3.7 4.841v6.772h-2.948V11.382h2.947v2.145h.06c.904-1.624 2.407-2.605 4.544-2.605 2.978 0 5.233 1.624 5.233 5.914zm7.45-2.894v7.385c0 1.007.414 1.465 1.419 1.465h.709v2.746h-1.33c-2.393 0-3.694-1.312-3.694-3.631v-7.965h-2.423v-2.533h2.423V5.764h2.896v5.645h2.778v2.533H144.1zm19.399 4.503c0 4.343-3.275 7.523-7.67 7.523-4.398 0-7.672-3.18-7.672-7.523 0-4.342 3.274-7.523 7.671-7.523 4.396 0 7.67 3.18 7.67 7.523zm-11.933 0c0 2.738 1.832 4.514 4.475 4.514s4.475-1.776 4.475-4.514c0-2.738-1.832-4.513-4.475-4.513s-4.475 1.775-4.475 4.513zm34.093-7.093l-4.645 14.186h-2.697l-3.297-10.163-3.326 10.163h-2.698l-4.645-14.186h3.237l2.787 10.225 3.207-10.225h2.846l3.207 10.225 2.788-10.225h3.236zM201 16.836v8.702h-2.948v-8.181c0-2.42-1.203-3.432-3.189-3.432-2.166 0-3.7 1.318-3.7 4.841v6.772h-2.948V11.382h2.948v2.145h.06c.903-1.624 2.407-2.605 4.543-2.605 2.978 0 5.234 1.624 5.234 5.914zM120.881 6.194a2.14 2.14 0 0 1-2.13 2.15 2.14 2.14 0 0 1-2.131-2.15 2.14 2.14 0 0 1 2.13-2.15 2.14 2.14 0 0 1 2.131 2.15zM5.743 0v24.194H22.97v-1.936H7.657v-5.806h21.057V30H0V0h5.743zm22.971 0v14.516h-5.743V0h5.743zm-7.657 6.774v7.742h-5.743V6.774h5.743zm-7.657 0v7.742H7.657V6.774H13.4z"></path></g></svg>